<?xml version="1.0" ?><svg id="Icons" style="enable-background:new 0 0 32 32;" version="1.1" viewBox="0 0 32 32" xml:space="preserve" xmlns="http://www.w3.org/2000/svg" xmlns:xlink="http://www.w3.org/1999/xlink"><style type="text/css">
	.st0{fill:none;stroke:#000000;stroke-width:2;stroke-linecap:round;stroke-linejoin:round;stroke-miterlimit:10;}
</style><path class="st0" d="M26,3H9C7.3,3,6,4.3,6,6v0c0,1.7,1.3,3,3,3h17v10"/><path class="st0" d="M18,29H9c-1.7,0-3-1.3-3-3v0V6"/><line class="st0" x1="26" x2="9" y1="6" y2="6"/><line class="st0" x1="10" x2="10" y1="9" y2="29"/><path class="st0" d="M25.5,18.5c1.9,1.9,1.9,5.1,0,7c-0.5,0.5-1,0.8-1.6,1.1c-1.8,0.7-3.9,0.4-5.4-1.1c-1.9-1.9-1.9-5.1,0-7  S23.6,16.6,25.5,18.5z"/><path class="st0" d="M26.5,24l3.9,3.6c0.8,0.8,0.8,2,0,2.8l0,0c-0.8,0.8-2,0.8-2.8,0l-3.5-3.5"/></svg>